<svg xmlns="http://www.w3.org/2000/svg" viewBox="0 0 512 512">
  <rect width="512" height="512" rx="96" fill="#faf9f5"/>
  <path d="M 236 268
           C 252 208, 282 148, 326 104
           C 348 82, 374 64, 402 52
           C 406 100, 398 150, 378 196
           C 356 248, 318 290, 268 296
           C 252 298, 240 288, 236 268 Z"
        fill="#d97757"/>
  <path d="M 352 122 L 312 186 L 326 190 L 364 128 Z" fill="#faf9f5"/>
  <path d="M 316 214 L 282 264 L 296 267 L 328 220 Z" fill="#faf9f5"/>
  <path d="M 226 300 C 270 240, 330 160, 394 62"
        fill="none" stroke="#141413" stroke-width="10" stroke-linecap="round"/>
  <path d="M 172 312 L 340 312 L 322 288 L 190 288 Z" fill="#141413"/>
  <path d="M 190 312 L 172 312 L 148 360 C 140 420, 168 452, 256 452 C 344 452, 372 420, 364 360 L 340 312 Z" fill="#141413"/>
  <ellipse cx="256" cy="366" rx="64" ry="16" fill="#d97757"/>
</svg>
